<svg width="16" height="26" viewBox="0 0 16 26" fill="none" xmlns="http://www.w3.org/2000/svg">
<g clip-path="url(#clip0_5888_262790)">
<path opacity="0.2" fill-rule="evenodd" clip-rule="evenodd" d="M15.8047 20.9715C15.5444 21.2318 15.1223 21.2318 14.8619 20.9715L8 14.1096L1.1381 20.9715C0.8777 21.2318 0.4556 21.2318 0.1953 20.9715C-0.0650999 20.7111 -0.0650999 20.289 0.1953 20.0287L7.5286 12.6954C7.78894 12.435 8.21105 12.435 8.4714 12.6954L15.8047 20.0287C16.0651 20.289 16.0651 20.7111 15.8047 20.9715Z" fill="#FF444F"/>
<path opacity="0.5" fill-rule="evenodd" clip-rule="evenodd" d="M15.8047 14.9714C15.5444 15.2318 15.1223 15.2318 14.8619 14.9714L8 8.10955L1.1381 14.9714C0.8777 15.2318 0.4556 15.2318 0.1953 14.9714C-0.0650999 14.7111 -0.0650999 14.2889 0.1953 14.0286L7.5286 6.69535C7.78894 6.43495 8.21105 6.43495 8.4714 6.69535L15.8047 14.0286C16.0651 14.2889 16.0651 14.7111 15.8047 14.9714Z" fill="#FF444F"/>
<path fill-rule="evenodd" clip-rule="evenodd" d="M15.8047 8.97145C15.5444 9.23185 15.1223 9.23185 14.8619 8.97145L8 2.10955L1.1381 8.97145C0.8777 9.23185 0.4556 9.23185 0.1953 8.97145C-0.0650999 8.71115 -0.0650999 8.28895 0.1953 8.02865L7.5286 0.695348C7.78894 0.434948 8.21105 0.434948 8.4714 0.695348L15.8047 8.02865C16.0651 8.28895 16.0651 8.71115 15.8047 8.97145Z" fill="#FF444F"/>
</g>
<defs>
<clipPath id="clip0_5888_262790">
<rect width="16" height="26" fill="white" transform="matrix(-1 0 0 -1 16 26)"/>
</clipPath>
</defs>
</svg>
